<svg width="2879" height="474" viewBox="0 0 2879 474" fill="none" xmlns="http://www.w3.org/2000/svg">
<path d="M115.6 180.3C125.7 188.9 130.8 201.2 130.8 217.1C130.8 233.5 125.7 246.2 115.6 255.3C105.5 264.3 91.1 268.8 72.5 268.8H32V317.2H17.2V167.4H72.5C91.1 167.4 105.5 171.7 115.6 180.3ZM105 245.7C112.8 239.2 116.7 229.8 116.7 217.5C116.7 205.5 112.8 196.4 105.1 190.1C97.4 183.8 86.3 180.7 71.9 180.7H32V255.5H71.9C86.2 255.4 97.2 252.2 105 245.7Z" fill="#090B29"/>
<path d="M232 211.6C240.6 216.4 247.3 223.1 252.1 231.6C257 240.2 259.4 249.9 259.4 260.7C259.4 271.7 257 281.5 252.1 290.2C247.2 298.8 240.5 305.6 232 310.3C223.4 315.1 213.7 317.5 202.9 317.5C192 317.5 182.3 315.1 173.8 310.3C165.2 305.5 158.5 298.8 153.7 290.2C148.8 281.6 146.4 271.7 146.4 260.7C146.4 249.8 148.8 240.1 153.7 231.6C158.6 223 165.3 216.3 173.8 211.6C182.4 206.8 192.1 204.4 202.9 204.4C213.7 204.4 223.4 206.8 232 211.6ZM181 222.4C174.6 226.1 169.6 231.3 166 238C162.4 244.7 160.6 252.4 160.6 260.9C160.6 269.6 162.4 277.3 166 284C169.6 290.7 174.6 295.9 181 299.6C187.4 303.3 194.7 305.2 202.9 305.2C211 305.2 218.3 303.3 224.8 299.6C231.2 295.9 236.2 290.7 239.8 284C243.4 277.3 245.2 269.6 245.2 260.9C245.2 252.3 243.4 244.7 239.8 238C236.2 231.3 231.2 226.1 224.8 222.4C218.4 218.7 211.1 216.8 202.9 216.8C194.7 216.9 187.4 218.7 181 222.4Z" fill="#090B29"/>
<path d="M266.3 204.9H281.7L316.2 302.9L350.3 204.9H365.5L399.8 302.9L434.1 204.9H449.1L407.1 317.2H392.1L357.8 222.3L323.5 317.2H308.5L266.3 204.9Z" fill="#090B29"/>
<path d="M549.6 221C558.7 232.1 563 247 562.2 265.7H468.5C469.5 277.7 473.9 287.4 481.8 294.7C489.7 302.1 499.4 305.7 510.9 305.7C518 305.7 524.7 304.4 530.8 301.8C536.9 299.2 542.2 295.6 546.7 290.9L554.8 299C549.4 304.9 542.8 309.4 535.2 312.6C527.6 315.8 519.2 317.4 510 317.4C499.1 317.4 489.5 315 481.1 310.2C472.7 305.4 466.1 298.7 461.3 290.2C456.5 281.6 454.1 271.8 454.1 260.8C454.1 249.9 456.5 240.2 461.3 231.5C466.1 222.9 472.7 216.1 481.1 211.4C489.5 206.6 499 204.2 509.6 204.2C527.2 204.4 540.5 210 549.6 221ZM549.4 254.6C548.7 242.9 544.8 233.6 537.7 226.6C530.6 219.7 521.4 216.2 509.9 216.2C498.6 216.2 489.2 219.7 481.6 226.7C474 233.7 469.7 243 468.5 254.6H549.4Z" fill="#090B29"/>
<path d="M622.6 211.4C629.5 206.9 637.9 204.6 647.6 204.4V217.9C635.7 217.8 626.2 221.2 619 228.3C611.8 235.4 607.7 245 606.7 257.1V317.1H592.3V204.9H606.7V231C610.3 222.4 615.7 215.9 622.6 211.4Z" fill="#090B29"/>
<path d="M754.3 221C763.4 232.1 767.7 247 766.9 265.7H673.2C674.2 277.7 678.6 287.4 686.5 294.7C694.4 302.1 704.1 305.7 715.6 305.7C722.7 305.7 729.4 304.4 735.5 301.8C741.6 299.2 746.9 295.6 751.4 290.9L759.5 299C754.1 304.9 747.5 309.4 739.9 312.6C732.3 315.8 723.9 317.4 714.7 317.4C703.8 317.4 694.2 315 685.8 310.2C677.4 305.4 670.8 298.7 666 290.2C661.2 281.6 658.8 271.8 658.8 260.8C658.8 249.9 661.2 240.2 666 231.5C670.8 222.9 677.4 216.1 685.8 211.4C694.2 206.6 703.7 204.2 714.3 204.2C731.9 204.4 745.2 210 754.3 221ZM754.1 254.6C753.4 242.9 749.5 233.6 742.4 226.6C735.3 219.7 726.1 216.2 714.6 216.2C703.3 216.2 693.9 219.7 686.3 226.7C678.7 233.7 674.4 243 673.2 254.6H754.1Z" fill="#090B29"/>
<path d="M899.2 158.1V317.1H884.8V291.5C880.5 299.9 874.5 306.5 866.8 311.1C859.1 315.7 850.1 318.1 839.8 318.1C829.2 318.1 819.8 315.7 811.5 310.8C803.2 305.9 796.8 299.2 792.2 290.4C787.6 281.7 785.3 271.8 785.3 260.8C785.3 249.8 787.6 240 792.3 231.4C796.9 222.8 803.4 216.1 811.6 211.3C819.8 206.4 829.1 204 839.6 204C849.9 204 858.9 206.4 866.7 211.1C874.5 215.8 880.5 222.4 884.8 230.8V158.1H899.2ZM864.3 299.9C870.7 296.1 875.8 290.9 879.4 284.1C883 277.4 884.9 269.7 884.9 261.2C884.9 252.7 883.1 244.9 879.4 238.2C875.8 231.4 870.7 226.1 864.3 222.2C857.9 218.3 850.6 216.4 842.4 216.4C834.3 216.4 827 218.3 820.5 222.2C814 226.1 809 231.4 805.3 238.2C801.6 245 799.7 252.7 799.7 261.2C799.7 269.7 801.5 277.4 805.2 284.1C808.8 290.8 813.9 296.1 820.4 299.9C826.9 303.7 834.2 305.6 842.4 305.6C850.5 305.6 857.8 303.7 864.3 299.9Z" fill="#090B29"/>
<path d="M1089.4 211.6C1097.6 216.4 1104 223.1 1108.6 231.7C1113.2 240.3 1115.5 250.2 1115.5 261.2C1115.5 272.1 1113.2 281.8 1108.6 290.3C1104 298.9 1097.7 305.6 1089.5 310.3C1081.4 315.1 1072.1 317.5 1061.6 317.5C1051.3 317.5 1042.3 315.2 1034.6 310.5C1026.9 305.9 1020.9 299.4 1016.6 291.1V317H1002.2V158H1016.6V230.7C1020.7 222.4 1026.7 215.9 1034.5 211.3C1042.3 206.7 1051.3 204.3 1061.4 204.3C1071.9 204.4 1081.2 206.8 1089.4 211.6ZM1080.5 299.5C1086.9 295.7 1091.9 290.5 1095.5 283.7C1099.1 277 1100.9 269.3 1100.9 260.8C1100.9 252.4 1099.1 244.8 1095.5 238.1C1091.9 231.4 1086.9 226.1 1080.5 222.3C1074.1 218.5 1066.9 216.6 1058.9 216.6C1050.8 216.6 1043.5 218.5 1037.1 222.3C1030.7 226.1 1025.7 231.3 1022.1 238.1C1018.5 244.8 1016.6 252.4 1016.6 260.8C1016.6 269.4 1018.4 277 1022 283.7C1025.6 290.4 1030.6 295.7 1037 299.5C1043.4 303.3 1050.7 305.2 1058.9 305.2C1066.9 305.2 1074.1 303.3 1080.5 299.5Z" fill="#090B29"/>
<path d="M1162.1 352.8C1156.5 357.2 1150 359.4 1142.7 359.4C1134 359.4 1126.3 356.8 1119.6 351.7L1126 340.6C1131 344 1136.4 345.7 1142.1 345.7C1146.7 345.7 1150.8 344.2 1154.5 341.2C1158.2 338.2 1161.3 333.8 1163.7 328.1L1168.4 316.5L1121.9 204.8H1137.1L1175.7 301.3L1212.8 204.8H1227.6L1175.7 333.2C1172.3 341.8 1167.7 348.3 1162.1 352.8Z" fill="#090B29"/>
<path d="M1607.26 86.9097C1597.29 87.4658 1587.41 89.1766 1577.84 92.0078V284.496C1577.6 329.851 1571.97 343.508 1530.1 352.119L1382.52 382.048C1383.72 389.47 1386.21 396.624 1389.89 403.18L1546.61 370.187C1605.2 355.95 1607.37 340.893 1607.61 289.013L1607.26 86.9097Z" fill="url(#paint0_linear_725_36279)"/>
<path d="M1658.99 143.889C1658.83 119.798 1647.44 100.858 1630.27 92.194L1601 77.1108C1618.04 85.8807 1629.43 104.9 1629.56 129.043L1629.74 300.267C1629.51 347.815 1623.56 370.876 1568.99 381.996L1415.41 413.695C1404.1 416.22 1392.27 414.755 1381.92 409.548L1411.21 424.631C1421.51 429.84 1433.3 431.314 1444.57 428.804V428.804L1598.44 396.974C1640.94 386.989 1659.2 361.234 1659.2 308.905L1658.99 143.889Z" fill="#128CFF"/>
<path d="M1330.2 345.784V259.089L1301.14 283.391V330.939C1301.14 355.109 1313.16 374.233 1330.2 383.003C1330.2 383.003 1351.59 393.992 1352.75 394.626C1353.33 394.969 1353.6 394.626 1353.1 394.124C1339.55 384.113 1330.3 366.916 1330.2 345.784Z" fill="url(#paint1_linear_725_36279)"/>
<path d="M1549.26 50.3539C1538.91 45.1464 1527.07 43.6811 1515.76 46.2067L1362.16 77.9843C1328.21 85.0108 1300.87 121.728 1301.03 159.581V239.831L1330.09 215.212V174.453C1330.04 136.6 1357.51 100.12 1391.48 93.0675L1545.06 61.3691C1553.34 59.5598 1561.94 59.8138 1570.1 62.1087C1570.79 62.2936 1571 61.6068 1570.44 61.3163L1549.26 50.3539Z" fill="url(#paint2_linear_725_36279)"/>
<path d="M1482.87 177.229C1451.33 183.754 1425.55 217.83 1425.82 252.989C1426.08 288.147 1451.91 311.578 1483.45 305.053C1514.99 298.529 1540.64 264.426 1540.46 229.294C1540.27 194.162 1514.39 170.705 1482.87 177.229Z" fill="#1C00C2"/>
<path d="M1382.1 372.643V317.647L1352.65 270.997V357.56C1352.78 381.704 1364.77 400.749 1381.83 409.519L1411.13 424.602C1394.07 415.832 1382.23 396.813 1382.1 372.643Z" fill="#1C00C2"/>
<path d="M1567.48 72.8612L1413.9 104.56C1379.93 111.665 1352.49 148.383 1352.65 186.236V221.791L1382.1 268.467V201.319C1381.94 163.518 1409.23 126.748 1443.2 119.722L1596.78 88.0235C1608.09 85.5061 1619.92 86.9807 1630.27 92.1972L1601 77.114C1590.66 71.8646 1578.81 70.3618 1567.48 72.8612V72.8612Z" fill="#1C00C2"/>
<path d="M1738 335.001V124.357H1776.72V335.126L1738 335.001Z" fill="#404041"/>
<path d="M1849.76 252.614L1884.99 247.367C1893.14 246.212 1895.76 242.121 1895.76 237.187C1895.76 227.006 1887.89 218.449 1871.59 218.449C1854.73 218.449 1845.42 229.223 1844.23 241.746L1809.88 234.47C1812.22 212.047 1832.9 187.313 1871.31 187.313C1916.72 187.313 1933.61 212.921 1933.61 241.746V312.2C1933.66 319.8 1934.24 327.387 1935.36 334.904H1899.82C1898.84 329.233 1898.35 323.484 1898.39 317.728C1891.11 329.064 1877.43 338.964 1856.16 338.964C1825.62 338.964 1806.98 318.29 1806.98 295.898C1806.98 270.384 1825.9 256.112 1849.76 252.614ZM1895.76 277.067V270.665L1863.44 275.599C1853.54 277.067 1845.7 282.594 1845.7 293.65C1845.7 302.113 1851.95 310.233 1864.44 310.233C1880.71 310.233 1895.76 302.363 1895.76 277.067Z" fill="#404041"/>
<path d="M2101.29 309.08C2101.29 318.699 2101.86 329.161 2102.45 335.001H2065.47C2064.51 329.515 2064.02 323.957 2064.01 318.387C2057.6 329.754 2043.05 338.499 2023.85 338.499C1983.09 338.499 1953.98 306.457 1953.98 263.11C1953.98 221.169 1982.09 188.159 2022.69 188.159C2047.42 188.159 2059.07 198.34 2063.29 205.929V124.357H2101.45L2101.29 309.08ZM2028.5 303.865C2048.3 303.865 2063.73 288.719 2063.73 262.798C2063.73 236.878 2048.3 222.918 2028.5 222.918C2008.7 222.918 1993.15 237.471 1993.15 263.11C1993.15 288.75 2008.14 303.865 2028.5 303.865V303.865Z" fill="#404041"/>
<path d="M2155.12 120.765C2159.82 120.765 2164.43 122.157 2168.34 124.767C2172.26 127.376 2175.32 131.086 2177.13 135.43C2178.95 139.773 2179.43 144.556 2178.54 149.176C2177.64 153.797 2175.39 158.048 2172.08 161.396C2168.78 164.744 2164.55 167.038 2159.94 167.99C2155.33 168.942 2150.54 168.51 2146.18 166.747C2141.81 164.984 2138.07 161.97 2135.41 158.083C2132.76 154.197 2131.31 149.612 2131.26 144.905C2131.22 141.748 2131.81 138.615 2132.99 135.688C2134.17 132.761 2135.93 130.097 2138.15 127.852C2140.36 125.607 2143.01 123.824 2145.92 122.607C2148.83 121.391 2151.96 120.764 2155.12 120.765V120.765ZM2135.91 335V191.781H2174.64V335H2135.91Z" fill="#404041"/>
<path d="M2208.62 390.307V191.78H2246.1V209.237C2252.5 198.182 2268.52 188.563 2290.04 188.563C2331.98 188.563 2356.12 220.605 2356.12 263.108C2356.12 306.455 2329.05 338.497 2288.6 338.497C2268.8 338.497 2254.25 330.627 2247.26 321.008V390.307H2208.62ZM2282.55 223.228C2262.75 223.228 2246.76 238.062 2246.76 263.39C2246.76 288.717 2262.75 303.988 2282.55 303.988C2302.34 303.988 2318.05 289.123 2318.05 263.39C2318.05 237.656 2302.31 223.228 2282.64 223.228H2282.55Z" fill="#404041"/>
<path d="M2419.45 252.614L2454.68 247.367C2462.83 246.212 2465.46 242.121 2465.46 237.187C2465.46 227.006 2457.59 218.449 2441.28 218.449C2424.42 218.449 2415.08 229.223 2413.93 241.746L2379.57 234.47C2381.92 212.047 2402.56 187.313 2441 187.313C2486.41 187.313 2503.27 212.921 2503.27 241.746V312.2C2503.32 319.8 2503.9 327.387 2505.02 334.904H2469.52C2468.53 329.233 2468.05 323.484 2468.08 317.728C2460.8 329.064 2447.12 338.964 2425.86 338.964C2395.28 338.964 2376.67 318.29 2376.67 295.898C2376.67 270.384 2395.6 256.112 2419.45 252.614ZM2465.46 277.067V270.665L2433.13 275.599C2423.23 277.067 2415.39 282.594 2415.39 293.65C2415.39 302.113 2421.64 310.233 2434.13 310.233C2450.31 310.233 2465.46 302.363 2465.46 277.067Z" fill="#404041"/>
<path d="M2565 333.592C2567.63 349.206 2580.12 360.668 2598.48 360.668C2622.93 360.668 2636.61 348.457 2636.61 320.788V310.294C2630.77 319.663 2617.38 328.657 2596.73 328.657C2558.6 328.657 2530.06 299.239 2530.06 259.078C2530.06 221.228 2557.41 189.217 2596.73 189.217C2619.44 189.217 2632.52 199.117 2637.49 208.705V191.841H2674.74V319.632C2674.74 358.919 2653.48 394.739 2599.64 394.739C2560.35 394.739 2534.06 370.286 2530.06 342.898L2565 333.592ZM2637.18 259.078C2637.18 236.967 2622.06 222.976 2603.42 222.976C2584.21 222.976 2569.06 236.967 2569.06 259.078C2569.06 281.188 2583.34 295.46 2603.42 295.46C2623.5 295.46 2637.18 281.126 2637.18 259.015V259.078Z" fill="#404041"/>
<path d="M2840.94 293.962C2833.66 318.695 2810.96 339.369 2775.73 339.369C2736.44 339.369 2701.81 311.263 2701.81 262.794C2701.81 217.106 2735.57 187.406 2772.23 187.406C2816.49 187.406 2843 215.513 2843 261.639C2843 267.167 2842.41 272.975 2842.41 273.569H2739.94C2740.82 292.494 2756.81 306.172 2776.04 306.172C2794.06 306.172 2803.99 297.147 2808.65 284.312L2840.94 293.962ZM2804.84 247.117C2804.28 232.845 2794.94 219.011 2772.83 219.011C2764.91 218.713 2757.18 221.461 2751.22 226.689C2745.27 231.917 2741.55 239.227 2740.82 247.117H2804.84Z" fill="#404041"/>
<defs>
<linearGradient id="paint0_linear_725_36279" x1="1382.52" y1="245.032" x2="1607.61" y2="245.032" gradientUnits="userSpaceOnUse">
<stop stop-color="#00DEBB"/>
<stop offset="1" stop-color="#00DEBB"/>
</linearGradient>
<linearGradient id="paint1_linear_725_36279" x1="1301.03" y1="326.844" x2="1353.26" y2="326.844" gradientUnits="userSpaceOnUse">
<stop stop-color="#00DEBB"/>
<stop offset="1" stop-color="#00DEBB"/>
</linearGradient>
<linearGradient id="paint2_linear_725_36279" x1="1301.03" y1="142.438" x2="1570.76" y2="142.438" gradientUnits="userSpaceOnUse">
<stop stop-color="#00DEBB"/>
<stop offset="1" stop-color="#00DEBB"/>
</linearGradient>
</defs>
</svg>
